STARTFONT 2.1
COMMENT METAFONT output 1995.04.12:1801
COMMENT fontid=MSAM V2.2
COMMENT codingscheme=TeX math symbols
COMMENT fontfacebyte
COMMENT jobname=msam10
COMMENT mag=0.35
COMMENT mode=cx
COMMENT pixels_per_inch=300
COMMENT blacker=0
COMMENT fillin=0.2
COMMENT o_correction=0.6
COMMENT Checksum 97b3eecd
COMMENT 
COMMENT This file is made by pktobdf using the above specified pk file.
COMMENT 
FONT -metafont-msam10-medium-r-normal--15-140-75-75-P-81-MetaFont-FONTSPECIFIC
SIZE 15 75 75
FONTBOUNDINGBOX 18 24 -1 -8
STARTPROPERTIES 21
FONT_ASCENT 12
FONT_DESCENT 5
FOUNDRY "metafont"
FAMILY_NAME "msam10"
WEIGHT_NAME "medium"
SLANT "r"
SETWIDTH_NAME "normal"
ADD_STYLE_NAME ""
PIXEL_SIZE 15
POINT_SIZE 140
RESOLUTOIN_X 75
RESOLUTOIN_Y 75
SPACING "P"
AVERAGE_WIDTH 81
CHARSET_REGISTRY "MetaFont"
CHARSET_ENCODING "FONTSPECIFIC"
AVG_CAPITAL_WIDTH 15
AVG_LOWERCASE_WIDTH 17
COPYRIGHT "MetaFont (public domain)"
DEVICE_FONT_NAME "msam10"
FULLNAME "msam10"
ENDPROPERTIES
CHARS 128
STARTCHAR Gamma
ENCODING 0
SWIDTH 750 0
DWIDTH 11 0
BBX 8 8 1 0
BITMAP
ff
81
81
8d
81
81
81
ff
ENDCHAR
STARTCHAR Delta
ENCODING 1
SWIDTH 750 0
DWIDTH 11 0
BBX 8 8 1 0
BITMAP
ff
89
89
ff
89
89
89
ff
ENDCHAR
STARTCHAR Theta
ENCODING 2
SWIDTH 750 0
DWIDTH 11 0
BBX 8 8 1 0
BITMAP
ff
c3
a5
99
99
a5
c3
ff
ENDCHAR
STARTCHAR Lamdba
ENCODING 3
SWIDTH 750 0
DWIDTH 11 0
BBX 8 8 1 0
BITMAP
ff
81
81
81
81
81
81
ff
ENDCHAR
STARTCHAR Xi
ENCODING 4
SWIDTH 750 0
DWIDTH 11 0
BBX 8 8 1 0
BITMAP
ff
ff
ff
ff
ff
ff
ff
ff
ENDCHAR
STARTCHAR Pi
ENCODING 5
SWIDTH 272 0
DWIDTH 4 0
BBX 1 1 1 0
BITMAP
80
ENDCHAR
STARTCHAR Sigma
ENCODING 6
SWIDTH 682 0
DWIDTH 10 0
BBX 7 13 1 -2
BITMAP
10
10
28
28
44
44
82
82
44
44
28
28
10
ENDCHAR
STARTCHAR Upsilon
ENCODING 7
SWIDTH 682 0
DWIDTH 10 0
BBX 7 13 1 -2
BITMAP
10
10
38
38
7c
7c
fe
fe
7c
7c
38
38
10
ENDCHAR
STARTCHAR Phi
ENCODING 8
SWIDTH 750 0
DWIDTH 11 0
BBX 8 10 1 -1
BITMAP
40
74
62
a1
81
81
81
81
42
3c
ENDCHAR
STARTCHAR Psi
ENCODING 9
SWIDTH 750 0
DWIDTH 11 0
BBX 8 10 1 -1
BITMAP
02
2e
46
85
81
81
81
81
42
3c
ENDCHAR
STARTCHAR Omega
ENCODING 10
SWIDTH 1023 0
DWIDTH 15 0
BBX 12 7 1 0
BITMAP
0040
ffe0
0000
0000
fff0
4000
2000
ENDCHAR
STARTCHAR arrowup
ENCODING 11
SWIDTH 1023 0
DWIDTH 15 0
BBX 12 7 1 0
BITMAP
2000
7ff0
0000
0000
fff0
0020
0040
ENDCHAR
STARTCHAR arrowdown
ENCODING 12
SWIDTH 750 0
DWIDTH 11 0
BBX 8 8 1 0
BITMAP
ff
81
81
ff
81
81
81
ff
ENDCHAR
STARTCHAR quotesingle
ENCODING 13
SWIDTH 682 0
DWIDTH 10 0
BBX 7 10 1 0
BITMAP
90
90
90
90
9e
90
90
90
90
90
ENDCHAR
STARTCHAR exclamdown
ENCODING 14
SWIDTH 887 0
DWIDTH 13 0
BBX 10 10 1 0
BITMAP
9200
9200
9200
9200
93c0
9200
9200
9200
9200
9200
ENDCHAR
STARTCHAR questiondown
ENCODING 15
SWIDTH 614 0
DWIDTH 9 0
BBX 6 10 1 0
BITMAP
80
80
fc
80
80
fc
80
80
80
80
ENDCHAR
STARTCHAR dotlessi
ENCODING 16
SWIDTH 1023 0
DWIDTH 15 0
BBX 12 5 1 1
BITMAP
0240
0120
fff0
0120
0240
ENDCHAR
STARTCHAR dotlessj
ENCODING 17
SWIDTH 1023 0
DWIDTH 15 0
BBX 12 5 1 1
BITMAP
2400
4800
fff0
4800
2400
ENDCHAR
STARTCHAR grave
ENCODING 18
SWIDTH 1023 0
DWIDTH 15 0
BBX 11 9 2 -1
BITMAP
4000
8000
ffe0
8000
4000
8000
ffe0
8000
4000
ENDCHAR
STARTCHAR acute
ENCODING 19
SWIDTH 1023 0
DWIDTH 15 0
BBX 11 9 1 -1
BITMAP
0040
0020
ffe0
0020
0040
0020
ffe0
0020
0040
ENDCHAR
STARTCHAR caron
ENCODING 20
SWIDTH 818 0
DWIDTH 12 0
BBX 9 12 1 -3
BITMAP
f780
a280
2200
2200
2200
2200
2200
2200
2200
2200
2200
2200
ENDCHAR
STARTCHAR breve
ENCODING 21
SWIDTH 818 0
DWIDTH 12 0
BBX 9 12 1 -2
BITMAP
2200
2200
2200
2200
2200
2200
2200
2200
2200
2200
a280
f780
ENDCHAR
STARTCHAR macron
ENCODING 22
SWIDTH 409 0
DWIDTH 6 0
BBX 3 13 2 -3
BITMAP
80
c0
a0
80
80
80
80
80
80
80
80
80
80
ENDCHAR
STARTCHAR ring
ENCODING 23
SWIDTH 409 0
DWIDTH 6 0
BBX 3 13 2 -3
BITMAP
80
80
80
80
80
80
80
80
80
80
a0
c0
80
ENDCHAR
STARTCHAR cedilla
ENCODING 24
SWIDTH 409 0
DWIDTH 6 0
BBX 3 13 0 -3
BITMAP
20
60
a0
20
20
20
20
20
20
20
20
20
20
ENDCHAR
STARTCHAR germandbls
ENCODING 25
SWIDTH 409 0
DWIDTH 6 0
BBX 3 13 0 -3
BITMAP
20
20
20
20
20
20
20
20
20
20
a0
60
20
ENDCHAR
STARTCHAR ae
ENCODING 26
SWIDTH 1091 0
DWIDTH 16 0
BBX 14 5 1 1
BITMAP
8010
8018
7ffc
8018
8010
ENDCHAR
STARTCHAR oe
ENCODING 27
SWIDTH 1091 0
DWIDTH 16 0
BBX 14 5 0 1
BITMAP
2004
6004
fff8
6004
2004
ENDCHAR
STARTCHAR oslash
ENCODING 28
SWIDTH 1023 0
DWIDTH 15 0
BBX 12 9 1 0
BITMAP
6000
7ff0
4000
6000
0040
0020
fff0
0020
0040
ENDCHAR
STARTCHAR AE
ENCODING 29
SWIDTH 1023 0
DWIDTH 15 0
BBX 12 9 1 0
BITMAP
0060
ffe0
0020
0060
2000
4000
fff0
4000
2000
ENDCHAR
STARTCHAR OE
ENCODING 30
SWIDTH 477 0
DWIDTH 7 0
BBX 3 10 2 0
BITMAP
c0
e0
a0
e0
20
20
20
20
20
20
ENDCHAR
STARTCHAR Oslash
ENCODING 31
SWIDTH 477 0
DWIDTH 7 0
BBX 3 10 1 0
BITMAP
60
e0
a0
e0
80
80
80
80
80
80
ENDCHAR
STARTCHAR tilde
ENCODING 32
SWIDTH 1023 0
DWIDTH 15 0
BBX 12 5 1 1
BITMAP
0040
6320
94f0
0820
0040
ENDCHAR
STARTCHAR exclam
ENCODING 33
SWIDTH 1364 0
DWIDTH 20 0
BBX 17 5 1 1
BITMAP
200200
508500
e94b80
463100
200200
ENDCHAR
STARTCHAR quotedblright
ENCODING 34
SWIDTH 1023 0
DWIDTH 15 0
BBX 12 8 1 0
BITMAP
00f0
0090
2110
4110
ffe0
4080
2080
0080
ENDCHAR
STARTCHAR numbersign
ENCODING 35
SWIDTH 1023 0
DWIDTH 15 0
BBX 12 8 1 0
BITMAP
f000
9000
8840
8820
7ff0
0820
0840
0800
ENDCHAR
STARTCHAR dollar
ENCODING 36
SWIDTH 750 0
DWIDTH 11 0
BBX 8 10 1 1
BITMAP
18
24
24
18
00
ff
00
00
00
ff
ENDCHAR
STARTCHAR percent
ENCODING 37
SWIDTH 750 0
DWIDTH 11 0
BBX 8 15 1 -4
BITMAP
80
80
40
30
0f
30
40
80
80
00
00
61
91
89
86
ENDCHAR
STARTCHAR ampersand
ENCODING 38
SWIDTH 750 0
DWIDTH 11 0
BBX 8 15 1 -4
BITMAP
80
60
18
06
01
06
18
60
80
00
00
61
91
89
86
ENDCHAR
STARTCHAR quoteright
ENCODING 39
SWIDTH 750 0
DWIDTH 11 0
BBX 8 17 1 -6
BITMAP
80
60
18
06
03
0c
30
c0
00
00
61
99
86
00
61
99
86
ENDCHAR
STARTCHAR parenleft
ENCODING 40
SWIDTH 1091 0
DWIDTH 16 0
BBX 13 5 1 1
BITMAP
0070
0088
ff88
0088
0070
ENDCHAR
STARTCHAR parenright
ENCODING 41
SWIDTH 682 0
DWIDTH 10 0
BBX 9 8 0 -1
BITMAP
0800
0800
0000
0000
0000
0000
c180
c180
ENDCHAR
STARTCHAR asterisk
ENCODING 42
SWIDTH 682 0
DWIDTH 10 0
BBX 9 8 0 -1
BITMAP
c180
c180
0000
0000
0000
0000
0800
0800
ENDCHAR
STARTCHAR plus
ENCODING 43
SWIDTH 750 0
DWIDTH 11 0
BBX 8 11 1 -2
BITMAP
18
18
00
ff
00
00
00
ff
00
18
18
ENDCHAR
STARTCHAR comma
ENCODING 44
SWIDTH 818 0
DWIDTH 12 0
BBX 9 12 1 1
BITMAP
0800
0800
1400
2200
2200
7f00
0000
ff80
0000
0000
0000
ff80
ENDCHAR
STARTCHAR hyphen
ENCODING 45
SWIDTH 750 0
DWIDTH 11 0
BBX 8 15 1 -4
BITMAP
01
01
02
0c
f0
0c
02
01
01
00
00
61
91
89
86
ENDCHAR
STARTCHAR period
ENCODING 46
SWIDTH 750 0
DWIDTH 11 0
BBX 8 15 1 -4
BITMAP
01
06
18
60
80
60
18
06
01
00
00
61
91
89
86
ENDCHAR
STARTCHAR slash
ENCODING 47
SWIDTH 750 0
DWIDTH 11 0
BBX 8 17 1 -6
BITMAP
01
06
18
e0
c0
30
0c
03
00
00
61
99
86
00
61
99
86
ENDCHAR
STARTCHAR 0
ENCODING 48
SWIDTH 750 0
DWIDTH 11 0
BBX 8 12 1 -3
BITMAP
01
06
18
61
86
18
60
80
60
18
06
01
ENDCHAR
STARTCHAR 1
ENCODING 49
SWIDTH 750 0
DWIDTH 11 0
BBX 8 12 1 -3
BITMAP
80
60
18
86
61
18
06
01
06
18
60
80
ENDCHAR
STARTCHAR 2
ENCODING 50
SWIDTH 750 0
DWIDTH 11 0
BBX 8 11 1 0
BITMAP
04
04
05
19
e2
0c
f0
0c
02
01
01
ENDCHAR
STARTCHAR 3
ENCODING 51
SWIDTH 750 0
DWIDTH 11 0
BBX 8 11 1 0
BITMAP
20
20
a0
98
47
30
0f
30
40
80
80
ENDCHAR
STARTCHAR 4
ENCODING 52
SWIDTH 750 0
DWIDTH 11 0
BBX 8 11 1 -2
BITMAP
01
01
02
0c
f0
0c
e2
19
05
04
04
ENDCHAR
STARTCHAR 5
ENCODING 53
SWIDTH 750 0
DWIDTH 11 0
BBX 8 14 1 -3
BITMAP
01
06
18
60
80
60
18
06
01
00
ff
00
00
ff
ENDCHAR
STARTCHAR 6
ENCODING 54
SWIDTH 750 0
DWIDTH 11 0
BBX 8 12 1 -3
BITMAP
01
06
18
60
80
60
18
86
61
18
06
01
ENDCHAR
STARTCHAR 7
ENCODING 55
SWIDTH 750 0
DWIDTH 11 0
BBX 9 14 1 -4
BITMAP
0180
0600
3800
c000
c000
3800
0600
c180
3800
0600
0180
0600
3800
c000
ENDCHAR
STARTCHAR 8
ENCODING 56
SWIDTH 272 0
DWIDTH 4 0
BBX 3 8 0 0
BITMAP
c0
c0
c0
40
60
60
20
20
ENDCHAR
STARTCHAR 9
ENCODING 57
SWIDTH 341 0
DWIDTH 5 0
BBX 5 1 1 3
BITMAP
f8
ENDCHAR
STARTCHAR colon
ENCODING 58
SWIDTH 750 0
DWIDTH 11 0
BBX 8 11 1 -2
BITMAP
01
01
00
ff
00
00
00
ff
00
80
80
ENDCHAR
STARTCHAR semicolon
ENCODING 59
SWIDTH 750 0
DWIDTH 11 0
BBX 8 11 1 -2
BITMAP
80
80
00
ff
00
00
00
ff
00
01
01
ENDCHAR
STARTCHAR less
ENCODING 60
SWIDTH 750 0
DWIDTH 11 0
BBX 8 11 1 -2
BITMAP
80
80
40
30
0f
30
47
98
a0
20
20
ENDCHAR
STARTCHAR equal
ENCODING 61
SWIDTH 750 0
DWIDTH 11 0
BBX 8 14 1 -3
BITMAP
80
60
18
06
01
06
18
60
80
00
ff
00
00
ff
ENDCHAR
STARTCHAR greater
ENCODING 62
SWIDTH 750 0
DWIDTH 11 0
BBX 8 12 1 -3
BITMAP
80
60
18
06
01
06
18
61
86
18
60
80
ENDCHAR
STARTCHAR question
ENCODING 63
SWIDTH 750 0
DWIDTH 11 0
BBX 8 15 1 -5
BITMAP
80
60
18
06
03
0c
30
c3
0c
30
c0
60
18
06
01
ENDCHAR
STARTCHAR at
ENCODING 64
SWIDTH 750 0
DWIDTH 11 0
BBX 9 9 1 -1
BITMAP
ff80
8000
8000
8000
8000
8000
8000
8000
ff80
ENDCHAR
STARTCHAR A
ENCODING 65
SWIDTH 750 0
DWIDTH 11 0
BBX 10 9 0 -1
BITMAP
ffc0
0040
0040
0040
0040
0040
0040
0040
7fc0
ENDCHAR
STARTCHAR B
ENCODING 66
SWIDTH 750 0
DWIDTH 11 0
BBX 8 9 1 -1
BITMAP
80
e0
98
86
81
86
98
e0
80
ENDCHAR
STARTCHAR C
ENCODING 67
SWIDTH 750 0
DWIDTH 11 0
BBX 7 9 2 -1
BITMAP
02
0e
32
42
82
42
32
0e
02
ENDCHAR
STARTCHAR D
ENCODING 68
SWIDTH 750 0
DWIDTH 11 0
BBX 8 12 1 -3
BITMAP
80
e0
98
86
81
86
98
e0
80
00
00
ff
ENDCHAR
STARTCHAR E
ENCODING 69
SWIDTH 750 0
DWIDTH 11 0
BBX 7 12 2 -3
BITMAP
02
0e
32
42
82
42
32
0e
02
00
00
fe
ENDCHAR
STARTCHAR F
ENCODING 70
SWIDTH 955 0
DWIDTH 14 0
BBX 10 8 2 0
BITMAP
0c00
0c00
ffc0
7f80
1e00
1e00
3f00
2100
ENDCHAR
STARTCHAR G
ENCODING 71
SWIDTH 477 0
DWIDTH 7 0
BBX 4 15 1 -4
BITMAP
90
60
60
90
90
90
90
90
90
90
90
90
60
60
90
ENDCHAR
STARTCHAR H
ENCODING 72
SWIDTH 682 0
DWIDTH 10 0
BBX 7 9 1 0
BITMAP
7c
fe
7c
7c
7c
38
38
38
10
ENDCHAR
STARTCHAR I
ENCODING 73
SWIDTH 750 0
DWIDTH 11 0
BBX 8 9 1 -1
BITMAP
80
e0
f8
fe
ff
fe
f8
e0
80
ENDCHAR
STARTCHAR J
ENCODING 74
SWIDTH 750 0
DWIDTH 11 0
BBX 7 9 2 -1
BITMAP
02
0e
3e
7e
fe
7e
3e
0e
02
ENDCHAR
STARTCHAR K
ENCODING 75
SWIDTH 818 0
DWIDTH 12 0
BBX 6 5 0 1
BITMAP
30
18
fc
18
30
ENDCHAR
STARTCHAR L
ENCODING 76
SWIDTH 887 0
DWIDTH 13 0
BBX 6 5 0 1
BITMAP
30
30
fc
30
30
ENDCHAR
STARTCHAR M
ENCODING 77
SWIDTH 682 0
DWIDTH 10 0
BBX 7 8 1 0
BITMAP
10
28
28
28
44
44
44
fe
ENDCHAR
STARTCHAR N
ENCODING 78
SWIDTH 682 0
DWIDTH 10 0
BBX 7 8 1 0
BITMAP
10
38
38
38
7c
7c
7c
fe
ENDCHAR
STARTCHAR O
ENCODING 79
SWIDTH 682 0
DWIDTH 10 0
BBX 7 9 1 0
BITMAP
7c
82
44
44
44
28
28
28
10
ENDCHAR
STARTCHAR P
ENCODING 80
SWIDTH 750 0
DWIDTH 11 0
BBX 8 5 1 1
BITMAP
ff
00
00
00
ff
ENDCHAR
STARTCHAR Q
ENCODING 81
SWIDTH 750 0
DWIDTH 11 0
BBX 8 21 1 -8
BITMAP
03
0c
30
c0
c0
30
0c
03
00
00
fe
00
00
80
60
18
06
06
18
60
80
ENDCHAR
STARTCHAR R
ENCODING 82
SWIDTH 750 0
DWIDTH 11 0
BBX 7 21 1 -8
BITMAP
80
60
18
06
06
18
60
80
00
00
fe
00
00
02
0c
30
40
c0
30
0c
02
ENDCHAR
STARTCHAR S
ENCODING 83
SWIDTH 750 0
DWIDTH 11 0
BBX 8 24 1 -8
BITMAP
03
0c
30
c0
60
18
06
01
00
00
ff
00
00
ff
00
00
80
60
18
06
03
0c
30
c0
ENDCHAR
STARTCHAR T
ENCODING 84
SWIDTH 750 0
DWIDTH 11 0
BBX 8 24 1 -8
BITMAP
c0
30
0c
03
06
18
60
80
00
00
ff
00
00
ff
00
00
01
06
18
60
c0
30
0c
03
ENDCHAR
STARTCHAR U
ENCODING 85
SWIDTH 750 0
DWIDTH 11 0
BBX 10 10 0 0
BITMAP
f3c0
2100
1100
7f80
0a00
0400
7f80
0400
0400
0e00
ENDCHAR
STARTCHAR V
ENCODING 86
SWIDTH 1023 0
DWIDTH 15 0
BBX 11 11 1 -2
BITMAP
0300
0300
ff80
0080
0040
ffe0
0040
0080
ff80
0300
0300
ENDCHAR
STARTCHAR W
ENCODING 87
SWIDTH 1023 0
DWIDTH 15 0
BBX 11 11 2 -2
BITMAP
1800
1800
3fe0
2000
4000
ffe0
4000
2000
3fe0
1800
1800
ENDCHAR
STARTCHAR X
ENCODING 88
SWIDTH 818 0
DWIDTH 12 0
BBX 9 10 1 0
BITMAP
0180
0200
0200
0400
0800
0800
9000
5000
5000
3000
ENDCHAR
STARTCHAR Y
ENCODING 89
SWIDTH 614 0
DWIDTH 9 0
BBX 6 10 1 0
BITMAP
84
84
48
48
30
30
00
00
00
fc
ENDCHAR
STARTCHAR Z
ENCODING 90
SWIDTH 614 0
DWIDTH 9 0
BBX 6 10 1 0
BITMAP
fc
00
00
10
30
30
48
48
84
84
ENDCHAR
STARTCHAR bracketleft
ENCODING 91
SWIDTH 614 0
DWIDTH 9 0
BBX 6 14 1 -2
BITMAP
fc
00
00
fc
00
00
00
30
30
48
48
48
84
84
ENDCHAR
STARTCHAR leftdblquote
ENCODING 92
SWIDTH 682 0
DWIDTH 10 0
BBX 7 10 1 0
BITMAP
02
04
04
08
10
10
20
40
40
fe
ENDCHAR
STARTCHAR bracketright
ENCODING 93
SWIDTH 682 0
DWIDTH 10 0
BBX 7 10 1 0
BITMAP
02
04
08
08
10
10
30
48
48
fe
ENDCHAR
STARTCHAR circumflex
ENCODING 94
SWIDTH 682 0
DWIDTH 10 0
BBX 8 9 1 -1
BITMAP
02
0e
11
61
81
61
11
0e
02
ENDCHAR
STARTCHAR dotaccent
ENCODING 95
SWIDTH 750 0
DWIDTH 11 0
BBX 8 5 1 1
BITMAP
73
8c
8c
8c
73
ENDCHAR
STARTCHAR leftquote
ENCODING 96
SWIDTH 750 0
DWIDTH 11 0
BBX 8 2 1 3
BITMAP
81
7e
ENDCHAR
STARTCHAR a
ENCODING 97
SWIDTH 750 0
DWIDTH 11 0
BBX 8 4 1 2
BITMAP
3c
42
42
81
ENDCHAR
STARTCHAR b
ENCODING 98
SWIDTH 750 0
DWIDTH 11 0
BBX 8 9 1 -1
BITMAP
3f
40
9f
a0
a0
a0
9f
40
3f
ENDCHAR
STARTCHAR c
ENCODING 99
SWIDTH 750 0
DWIDTH 11 0
BBX 8 9 1 -1
BITMAP
fc
02
f9
05
05
05
f9
02
fc
ENDCHAR
STARTCHAR d
ENCODING 100
SWIDTH 682 0
DWIDTH 10 0
BBX 7 9 1 0
BITMAP
aa
aa
aa
aa
aa
aa
92
44
38
ENDCHAR
STARTCHAR e
ENCODING 101
SWIDTH 682 0
DWIDTH 10 0
BBX 7 9 1 0
BITMAP
38
44
92
aa
aa
aa
aa
aa
aa
ENDCHAR
STARTCHAR f
ENCODING 102
SWIDTH 750 0
DWIDTH 11 0
BBX 8 8 1 0
BITMAP
08
08
08
08
18
14
24
c3
ENDCHAR
STARTCHAR g
ENCODING 103
SWIDTH 750 0
DWIDTH 11 0
BBX 8 8 1 0
BITMAP
c3
24
14
18
08
08
08
08
ENDCHAR
STARTCHAR h
ENCODING 104
SWIDTH 750 0
DWIDTH 11 0
BBX 8 10 1 0
BITMAP
80
40
40
20
10
18
24
42
42
81
ENDCHAR
STARTCHAR i
ENCODING 105
SWIDTH 750 0
DWIDTH 11 0
BBX 8 10 1 0
BITMAP
01
02
02
04
08
18
24
42
42
81
ENDCHAR
STARTCHAR j
ENCODING 106
SWIDTH 750 0
DWIDTH 11 0
BBX 8 15 1 -4
BITMAP
3f
40
80
80
80
80
80
40
3f
00
00
ff
00
00
ff
ENDCHAR
STARTCHAR k
ENCODING 107
SWIDTH 750 0
DWIDTH 11 0
BBX 8 15 1 -4
BITMAP
fc
02
01
01
01
01
01
02
fc
00
00
ff
00
00
ff
ENDCHAR
STARTCHAR l
ENCODING 108
SWIDTH 750 0
DWIDTH 11 0
BBX 8 6 1 1
BITMAP
18
e7
00
00
00
ff
ENDCHAR
STARTCHAR m
ENCODING 109
SWIDTH 750 0
DWIDTH 11 0
BBX 8 7 1 0
BITMAP
18
e7
00
00
00
e7
18
ENDCHAR
STARTCHAR n
ENCODING 110
SWIDTH 1296 0
DWIDTH 19 0
BBX 16 9 1 -1
BITMAP
0333
0ccc
1110
6660
8880
6660
1110
0ccc
0333
ENDCHAR
STARTCHAR o
ENCODING 111
SWIDTH 1296 0
DWIDTH 19 0
BBX 16 9 1 -1
BITMAP
ccc0
3320
0c98
0266
0191
0266
0c98
3320
ccc0
ENDCHAR
STARTCHAR p
ENCODING 112
SWIDTH 477 0
DWIDTH 7 0
BBX 4 4 1 6
BITMAP
f0
80
80
80
ENDCHAR
STARTCHAR q
ENCODING 113
SWIDTH 477 0
DWIDTH 7 0
BBX 4 4 1 6
BITMAP
f0
10
10
10
ENDCHAR
STARTCHAR r
ENCODING 114
SWIDTH 955 0
DWIDTH 14 0
BBX 13 13 0 -3
BITMAP
1fc0
2020
4010
5f10
8888
8888
8f08
8888
8888
5cd0
4010
3060
0f80
ENDCHAR
STARTCHAR s
ENCODING 115
SWIDTH 887 0
DWIDTH 13 0
BBX 14 13 -1 -3
BITMAP
0fc0
1020
2010
4388
4408
8404
8304
8084
4088
4708
2010
1860
0780
ENDCHAR
STARTCHAR t
ENCODING 116
SWIDTH 682 0
DWIDTH 10 0
BBX 7 11 1 0
BITMAP
10
10
10
10
7c
92
92
92
92
92
92
ENDCHAR
STARTCHAR u
ENCODING 117
SWIDTH 750 0
DWIDTH 11 0
BBX 8 13 1 -1
BITMAP
08
1c
1c
00
08
08
08
08
ff
08
08
08
08
ENDCHAR
STARTCHAR v
ENCODING 118
SWIDTH 750 0
DWIDTH 11 0
BBX 8 3 1 2
BITMAP
86
99
61
ENDCHAR
STARTCHAR w
ENCODING 119
SWIDTH 750 0
DWIDTH 11 0
BBX 8 7 1 0
BITMAP
86
89
91
61
00
00
ff
ENDCHAR
STARTCHAR x
ENCODING 120
SWIDTH 477 0
DWIDTH 7 0
BBX 4 4 1 0
BITMAP
80
80
80
f0
ENDCHAR
STARTCHAR y
ENCODING 121
SWIDTH 477 0
DWIDTH 7 0
BBX 4 4 1 0
BITMAP
10
10
10
f0
ENDCHAR
STARTCHAR z
ENCODING 122
SWIDTH 818 0
DWIDTH 12 0
BBX 11 10 0 0
BITMAP
1f00
0e00
0e00
c460
ffe0
ffe0
c460
0e00
0e00
1f00
ENDCHAR
STARTCHAR endash
ENCODING 123
SWIDTH 477 0
DWIDTH 7 0
BBX 4 12 1 0
BITMAP
60
f0
f0
f0
d0
c0
c0
d0
f0
f0
f0
60
ENDCHAR
STARTCHAR emdash
ENCODING 124
SWIDTH 545 0
DWIDTH 8 0
BBX 5 9 1 -3
BITMAP
f8
f8
30
30
30
30
30
30
20
ENDCHAR
STARTCHAR quotedbl
ENCODING 125
SWIDTH 750 0
DWIDTH 11 0
BBX 8 9 1 -1
BITMAP
3c
42
81
99
99
81
81
42
3c
ENDCHAR
STARTCHAR hungarumlaut
ENCODING 126
SWIDTH 750 0
DWIDTH 11 0
BBX 10 9 0 -1
BITMAP
3f00
4480
8440
b740
8c40
b740
8440
4080
3f00
ENDCHAR
STARTCHAR dieresis
ENCODING 127
SWIDTH 750 0
DWIDTH 11 0
BBX 8 9 1 -1
BITMAP
3c
42
81
81
bd
81
81
42
3c
ENDCHAR
ENDFONT
